<?xml version="1.0" encoding="UTF-8"?>
<svg id="Layer_1" data-name="Layer 1" xmlns="http://www.w3.org/2000/svg" viewBox="0 0 425.58 300.55">
  <defs>
    <style>
      .cls-1 {
        font-family: OverusedGrotesk-Black, 'Overused Grotesk';
        font-size: 239.04px;
        font-weight: 800;
      }

      .cls-1, .cls-2 {
        fill: #ff4500;
      }

      .cls-2 {
        stroke-width: 0px;
      }
    </style>
  </defs>
  <text class="cls-1" transform="translate(0 203.21)"><tspan x="0" y="0">W</tspan></text>
  <path class="cls-2" d="m345.02,167.1l-18.05-1.7c-9.98-.93-17.62-4.29-22.91-10.11-5.3-5.81-7.95-13.71-7.95-23.68s3.78-18.02,11.34-23.84c7.56-5.81,17.82-8.72,30.78-8.72s22.71,2.93,30.47,8.79c7.76,5.86,12.16,13.89,13.19,24.07h-30.39c-1.23-6.58-5.76-9.87-13.58-9.87-3.5,0-6.27.72-8.33,2.16-2.06,1.44-3.09,3.34-3.09,5.71,0,3.5,2.11,5.45,6.33,5.86l16.04,1.54c11.83,1.13,20.6,4.55,26.31,10.26,5.71,5.71,8.56,13.76,8.56,24.15,0,6.58-1.72,12.32-5.17,17.2-3.45,4.89-8.31,8.69-14.58,11.42-6.27,2.73-13.63,4.09-22.06,4.09-13.27,0-24.04-3.01-32.32-9.03-8.28-6.02-13.04-14.27-14.27-24.76h30.55c1.23,7,6.63,10.49,16.2,10.49,3.5,0,6.27-.77,8.33-2.31,2.06-1.54,3.09-3.6,3.09-6.17,0-3.19-2.83-5.04-8.49-5.55Z"/>
  <path class="cls-2" d="m261.96,94.93l29.11,4.59-15.68,99.43-29.11-4.59,15.68-99.43Z"/>
  <circle class="cls-2" cx="412.74" cy="190.37" r="12.83"/>
</svg>