<?xml version="1.0" encoding="UTF-8"?>
<svg id="Layer_1" data-name="Layer 1" xmlns="http://www.w3.org/2000/svg" viewBox="0 0 377.81 273.15">
  <defs>
    <style>
      .cls-1 {
        fill: #f04926;
      }

      .cls-1, .cls-2 {
        stroke-width: 0px;
      }

      .cls-2 {
        fill: #ebebeb;
      }
    </style>
  </defs>
  <path class="cls-2" d="m272.41,136.2c0,37.7-13.28,69.83-39.83,96.38-26.55,26.56-58.68,39.83-96.38,39.83s-69.83-13.27-96.38-39.83C13.27,206.03,0,173.9,0,136.2S13.27,66.38,39.83,39.83C66.38,13.28,98.5,0,136.2,0c29.39,0,55.33,8.01,77.83,24.02V0h58.37v136.2Zm-81.18,55.03c15.2-15.2,22.8-33.54,22.8-55.03s-7.6-39.83-22.8-55.03c-15.2-15.2-33.55-22.8-55.03-22.8s-39.83,7.6-55.03,22.8c-15.2,15.2-22.8,33.55-22.8,55.03s7.6,39.83,22.8,55.03c15.2,15.2,33.54,22.8,55.03,22.8s39.83-7.6,55.03-22.8Z"/>
  <circle class="cls-1" cx="339.13" cy="234.46" r="38.68"/>
</svg>